<?xml version="1.0" encoding="utf-8"?>
<!-- Generator: Adobe Illustrator 16.0.0, SVG Export Plug-In . SVG Version: 6.00 Build 0)  -->
<!DOCTYPE svg PUBLIC "-//W3C//DTD SVG 1.1//EN" "http://www.w3.org/Graphics/SVG/1.1/DTD/svg11.dtd">
<svg version="1.1" id="Layer_1" xmlns="http://www.w3.org/2000/svg" xmlns:xlink="http://www.w3.org/1999/xlink" x="0px" y="0px"
	 width="432px" height="288px" viewBox="0 0 432 288" enable-background="new 0 0 432 288" xml:space="preserve">
<path fill="#F8FCFE" stroke="#000000" stroke-width="0.75" stroke-miterlimit="10" d="M119.23,164.408
	c7.808,28.781,19.705,34.982,33.572,32.992c13.865-1.99,15.129-23.801,11.021-52.411c-4.108-28.612-18.679-50.191-32.544-48.2
	c-8.447,1.213-51.938,14.277-58.221,32.22c-2.812,8.029,2.222,12.288,6.145,13.691c4.566,1.633,9.828-1.433,9.828-1.434
	c0,0-7.4,6.568-1.928,14.465c4.669,6.737,12.82,1.686,12.82,1.686s-4.76,8.262,1.631,11.357
	C109.58,172.662,118.725,162.545,119.23,164.408z"/>
<g>
	<path fill="#F5C7D9" d="M188.514,192.51c0,0,10.914,21.392,17.697,38.89c6.162,15.896,9.738,29.506,9.738,29.506
		s1.908,3.22,7.623,3.22c4.922,0,5.588-5.901,5.588-5.901s0.779-23.604-0.946-34.871c-1.729-11.266,0.177-26.806,0.177-26.806
		s-11.684,0.553-18.697,0C202.684,195.993,188.514,192.51,188.514,192.51z"/>
	<path fill="#F5C7D9" d="M323.894,156.834c0,24.298-2.146,38.087-20.921,64.375c-14.107,19.746-49.19,28.841-75.374,28.841
		c-24.276-0.001-49.696,4.419-66.128-20.796c-13.264-20.349-25.275-44.4-25.275-70.606c0-50.481,25.275-89.796,91.403-81.749
		C283.556,83.708,323.894,106.352,323.894,156.834z"/>
	<ellipse cx="178.88" cy="156.213" rx="7.415" ry="11.121"/>
	<path d="M259.762,156.213c0,6.143-3.32,11.121-7.417,11.121c-4.092,0-7.411-4.979-7.411-11.121c0-6.144,3.319-11.123,7.411-11.123
		C256.441,145.09,259.762,150.069,259.762,156.213z"/>
	<path fill="#E7AFC6" d="M212.552,201.912c-14.884,0-26.948,3.22-26.948-15.679c0-10.438,12.064-18.899,26.948-18.899
		c14.88,0,26.946,8.462,26.946,18.899C239.498,205.132,227.432,201.912,212.552,201.912z"/>
	<ellipse fill="#F5C7D9" cx="200.223" cy="186.074" rx="4.121" ry="6.182"/>
	<ellipse fill="#F5C7D9" cx="221.377" cy="186.074" rx="4.121" ry="6.182"/>
	<path fill="#F5C7D9" d="M153.424,210.515c0,0,5.282,12.876,15.957,29.507c10.678,16.63,18.555,29.505,18.555,29.505
		s3.402,2.684,9.5,3.219c6.094,0.536,10.181-5.901,10.181-5.901s-4.81-23.603-6.962-34.868c-2.154-11.267-7.493-26.808-7.493-26.808
		s-14.558,0.554-23.294,0C161.131,204.615,153.424,210.515,153.424,210.515z"/>
	<path fill="#F5C7D9" d="M284.82,214.77c0,0-3.05,12.006-10.104,29.505c-6.409,15.896-11.737,29.507-11.737,29.507
		s-2.218,3.249-10.148,3.219c-5.119-0.021-9.034-5.902-9.034-5.902s0.799-23.604,2.596-34.87
		c1.798-11.266,5.256-26.806,5.256-26.806s12.151,0.554,19.445,0C278.386,208.868,284.82,214.77,284.82,214.77z"/>
	<path fill="#E7AFC6" d="M183.547,88.463c7.212,17.049-7.094,39.421-13.912,42.281c-6.893,2.892-32.816-2.418-40.029-19.471
		c-3.197-7.558-3.75-15.49-2.082-22.521c2.098-8.832,9.201-5.029,17.494-8.535c7.217-3.054,13.641-13.805,20.719-10.569
		C173.266,73.092,179.83,79.668,183.547,88.463z"/>
	<path fill="#F5C7D9" d="M318.471,194.12c0,0-11.353,21.391-18.405,38.89c-6.409,15.896-10.129,29.505-10.129,29.505
		s-1.986,3.22-7.93,3.22c-5.118,0-5.815-5.901-5.815-5.901s-0.812-23.605,0.987-34.871c1.797-11.266-0.183-26.806-0.183-26.806
		s12.151,0.552,19.444,0C303.732,197.603,318.471,194.12,318.471,194.12z"/>
	<ellipse fill="#FBDBE9" cx="167.79" cy="178.678" rx="10.461" ry="6.906"/>
	<ellipse fill="#FBDBE9" cx="263.145" cy="178.678" rx="10.463" ry="6.906"/>
</g>
<path fill="none" stroke="#727373" stroke-miterlimit="10" d="M279.938,154.644c0,0,0,45.829,0,50.843
	c0,14.014,3.855,20.77,9.246,20.77c6.196,0,10.009-31.017,10.009-31.017"/>
<ellipse fill="none" stroke="#A7CAE6" stroke-width="4" stroke-miterlimit="10" cx="253.782" cy="153.076" rx="22.232" ry="21.586"/>
<path fill="none" stroke="#A7CAE6" stroke-width="4" stroke-miterlimit="10" d="M279.938,154.644c0,0.866-0.701,1.568-1.567,1.568
	h-0.788c-0.866,0-1.567-0.702-1.567-1.568l0,0c0-0.864,0.701-1.567,1.567-1.567h0.788
	C279.236,153.076,279.938,153.779,279.938,154.644L279.938,154.644z"/>
<path fill="#999999" stroke="#727373" stroke-width="4" stroke-miterlimit="10" d="M179.82,66.603
	c3.705-1.212,10.238-1.239,14.93,0.156c5.375,1.598,37.05,2.577,47.75,0.408c7.003-1.419,12.762-2.164,15.667-2.167
	c2.906-0.002,6.653,1.394,8.833,4.048s1.604,6.18,0.878,12.019c-0.728,5.838-3.33,14.741-11.031,20.181
	c-7.701,5.441-26.803,11.291-35.847,11.291c-10.333,0-30.359-7.097-39-14.976c-8.418-7.675-9.175-17.44-8.594-23.014
	C173.988,68.976,177.439,67.381,179.82,66.603z"/>
<path fill="#999999" d="M184.18,31.091c1.265-2.027,8.572-5.539,19.035-5.802c10.462-0.264,27.538-0.891,34.918-0.1
	c8.152,0.874,17.701,2.401,19.3,4.901c1.536,2.401-0.309,8.895-0.599,12.184c-0.291,3.29-1.935,18.355-1.476,22.303
	s1.62,9.738,1.476,12.238c-0.146,2.499,0.871,6.842-6.539,11.58c-7.411,4.737-17.438,7.632-31.678,7.105
	c-14.24-0.527-19.035-2.764-24.412-5.132c-5.376-2.369-7.575-6.496-7.992-7.764c-0.686-2.087,1.018-11.711,0.872-16.581
	c-0.097-3.253-1.082-16.512-1.558-20.722C185.051,41.091,182.291,34.118,184.18,31.091z"/>
<path fill="#727373" d="M186.497,32.743c-0.593-2.271,7.794-4.715,13.17-5.194c6.667-0.593,29.913-0.589,36-0.229
	c6.345,0.375,18.238,2.075,19.691,3.983c1.453,1.908,1.039,3.558-9.423,4.631c-10.463,1.073-19.471,1.073-28.626,1.073
	C208.155,37.007,187.625,37.062,186.497,32.743z"/>
<path fill="#484748" d="M187.079,67.438c-0.134,5.114-1.491,13.271-0.866,15.174c0.417,1.267,2.616,5.392,7.992,7.76
	c5.377,2.367,10.172,4.603,24.412,5.129s24.267-2.368,31.678-7.103c7.41-4.735,6.394-9.076,6.539-11.575
	c0.097-1.679-0.396-4.842-0.868-7.935C236.9,83.893,204.285,84.797,187.079,67.438z"/>
<path fill="#F8FCFE" stroke="#000000" stroke-width="0.75" stroke-miterlimit="10" d="M338.134,164.408
	c-7.807,28.781-19.706,34.982-33.572,32.992c-13.865-1.99-15.13-23.801-11.021-52.411c4.109-28.612,18.68-50.191,32.543-48.2
	c8.45,1.213,51.938,14.277,58.222,32.22c2.814,8.029-2.222,12.288-6.146,13.691c-4.565,1.633-9.826-1.433-9.826-1.434
	c0,0,7.4,6.568,1.928,14.465c-4.669,6.737-12.821,1.686-12.821,1.686s4.76,8.262-1.631,11.357
	C347.783,172.662,338.639,162.545,338.134,164.408z"/>
<path fill="#E7AFC6" d="M257.338,88.463c-7.212,17.049,7.094,39.421,13.912,42.281c6.893,2.892,32.819-2.418,40.03-19.471
	c3.196-7.558,3.75-15.49,2.081-22.521c-2.097-8.832-9.201-5.029-17.493-8.535c-7.217-3.054-13.643-13.805-20.717-10.569
	C267.619,73.092,261.057,79.668,257.338,88.463z"/>
</svg>
